<svg id="svg" version="1.1" xmlns="http://www.w3.org/2000/svg" xmlns:xlink="http://www.w3.org/1999/xlink" width="400" height="400" viewBox="0, 0, 400,400"><g id="svgg"><path id="path0" d="M218.756 84.655 C 218.230 85.675,217.239 87.070,216.553 87.755 C 215.867 88.440,215.170 89.436,215.004 89.968 C 214.838 90.501,213.923 91.727,212.970 92.694 C 212.017 93.660,211.117 94.831,210.970 95.295 C 210.666 96.252,210.396 96.614,208.300 98.877 C 207.475 99.768,206.800 100.737,206.800 101.031 C 206.800 101.326,206.062 102.339,205.161 103.283 C 204.260 104.227,203.177 105.672,202.756 106.494 C 202.334 107.316,201.560 108.270,201.035 108.614 C 200.510 108.958,199.844 109.815,199.555 110.519 C 199.266 111.224,198.710 112.147,198.319 112.571 C 197.929 112.994,197.508 113.660,197.384 114.050 C 197.260 114.440,196.839 114.861,196.448 114.985 C 196.057 115.109,195.330 116.024,194.833 117.019 C 194.336 118.014,193.409 119.213,192.773 119.683 C 192.137 120.153,191.420 121.134,191.179 121.862 C 190.939 122.591,190.208 123.685,189.554 124.293 C 188.901 124.902,187.861 126.213,187.244 127.207 C 186.627 128.201,185.458 129.718,184.645 130.579 C 183.833 131.441,182.877 132.759,182.521 133.510 C 182.165 134.261,181.474 135.057,180.987 135.279 C 180.499 135.501,179.673 136.609,179.150 137.741 C 178.628 138.874,177.805 139.973,177.322 140.185 C 176.840 140.397,176.120 141.297,175.723 142.185 C 175.079 143.628,174.273 144.790,172.974 146.153 C 172.740 146.399,171.895 147.624,171.096 148.875 C 170.296 150.126,169.298 151.334,168.876 151.559 C 168.455 151.785,167.866 152.561,167.568 153.285 C 167.270 154.008,166.346 155.311,165.513 156.181 C 164.681 157.050,164.000 157.995,164.000 158.281 C 164.000 158.566,163.820 158.800,163.600 158.800 C 163.380 158.800,163.200 159.040,163.200 159.333 C 163.200 159.627,162.463 160.662,161.562 161.633 C 160.661 162.605,159.579 164.072,159.157 164.894 C 158.735 165.716,157.917 166.698,157.340 167.076 C 156.763 167.454,156.041 168.361,155.736 169.091 C 155.431 169.821,154.579 171.089,153.843 171.909 C 153.107 172.729,151.839 174.445,151.025 175.723 C 150.212 177.000,149.303 178.139,149.005 178.253 C 148.708 178.367,147.981 179.417,147.390 180.586 C 146.798 181.754,145.866 182.950,145.319 183.244 C 144.771 183.537,144.049 184.460,143.715 185.296 C 143.381 186.131,142.697 187.138,142.195 187.532 C 141.694 187.927,140.526 189.487,139.600 191.000 C 138.674 192.513,137.463 194.107,136.910 194.542 C 136.356 194.978,135.635 195.975,135.308 196.758 C 134.738 198.122,133.418 199.600,132.770 199.600 C 132.601 199.600,132.264 200.201,132.021 200.935 C 131.779 201.670,130.795 203.190,129.835 204.315 C 128.876 205.440,127.670 207.039,127.157 207.869 C 126.644 208.699,125.634 209.897,124.912 210.531 C 124.190 211.164,123.600 211.954,123.600 212.286 C 123.600 212.617,122.790 213.687,121.800 214.663 C 120.810 215.639,120.000 216.780,120.000 217.200 C 120.000 217.620,119.190 218.761,118.200 219.737 C 117.210 220.713,116.400 221.675,116.400 221.875 C 116.400 222.381,115.297 223.800,113.296 225.868 C 111.572 227.650,111.407 228.471,112.397 230.349 C 112.639 230.807,117.531 230.886,142.125 230.826 C 173.268 230.750,172.669 230.721,176.682 232.520 C 178.886 233.509,178.800 231.426,178.800 283.580 C 178.800 325.877,178.873 331.781,179.410 332.820 C 180.184 334.317,180.127 334.336,181.396 332.171 C 181.985 331.165,182.957 329.860,183.556 329.271 C 184.154 328.682,185.169 327.354,185.812 326.320 C 186.454 325.285,187.380 324.225,187.870 323.962 C 188.361 323.700,188.878 322.953,189.021 322.303 C 189.164 321.653,189.983 320.439,190.841 319.607 C 191.698 318.775,192.400 317.938,192.400 317.747 C 192.401 317.556,192.851 316.877,193.400 316.238 C 193.950 315.599,194.400 314.910,194.400 314.707 C 194.400 314.504,194.966 313.773,195.657 313.081 C 196.349 312.390,197.156 311.244,197.453 310.536 C 197.749 309.827,198.623 308.766,199.395 308.176 C 200.168 307.587,200.800 306.785,200.800 306.394 C 200.800 306.004,201.565 304.870,202.500 303.876 C 203.435 302.882,204.559 301.378,204.998 300.534 C 205.437 299.690,206.568 298.215,207.511 297.255 C 208.455 296.295,209.470 294.927,209.768 294.214 C 210.066 293.502,210.850 292.534,211.510 292.064 C 212.171 291.594,212.834 290.718,212.985 290.117 C 213.136 289.517,213.977 288.210,214.855 287.213 C 216.920 284.866,217.064 284.677,218.055 282.996 C 218.515 282.217,219.208 281.410,219.596 281.202 C 219.983 280.995,220.681 280.015,221.147 279.024 C 221.612 278.033,222.434 276.934,222.972 276.582 C 223.510 276.229,224.337 275.189,224.809 274.270 C 225.282 273.352,226.268 271.970,227.000 271.200 C 227.732 270.430,228.745 268.990,229.250 268.000 C 230.243 266.055,230.932 265.200,231.508 265.200 C 231.709 265.200,232.365 264.295,232.967 263.189 C 233.569 262.083,234.572 260.801,235.195 260.340 C 235.819 259.879,236.628 258.719,236.993 257.763 C 237.358 256.806,238.150 255.608,238.752 255.101 C 239.355 254.595,240.465 253.148,241.219 251.887 C 241.974 250.625,242.863 249.506,243.195 249.400 C 243.528 249.294,244.308 248.301,244.928 247.194 C 245.549 246.087,246.458 244.918,246.949 244.597 C 247.439 244.275,248.143 243.335,248.512 242.506 C 248.881 241.678,249.908 240.190,250.794 239.200 C 251.680 238.210,252.506 237.085,252.629 236.700 C 252.753 236.315,253.022 236.000,253.227 236.000 C 253.432 236.000,253.600 235.811,253.600 235.580 C 253.600 235.349,254.225 234.517,254.988 233.731 C 255.752 232.945,256.754 231.522,257.215 230.569 C 257.676 229.617,258.398 228.727,258.820 228.594 C 259.241 228.460,259.891 227.687,260.265 226.875 C 260.638 226.064,261.732 224.541,262.696 223.492 C 263.659 222.442,264.701 220.978,265.009 220.239 C 265.318 219.500,266.094 218.455,266.734 217.917 C 267.373 217.379,268.218 216.262,268.610 215.436 C 269.002 214.609,269.835 213.554,270.461 213.091 C 271.088 212.628,271.600 212.100,271.600 211.916 C 271.600 211.416,273.682 208.320,274.634 207.403 C 275.093 206.961,276.130 205.559,276.938 204.286 C 277.747 203.013,278.668 201.872,278.986 201.750 C 279.303 201.628,279.946 200.739,280.413 199.774 C 280.880 198.808,281.743 197.602,282.331 197.093 C 282.919 196.585,283.760 195.463,284.200 194.601 C 284.640 193.739,285.855 192.053,286.900 190.854 C 288.990 188.458,289.129 187.993,288.111 186.805 C 287.432 186.012,286.985 186.000,257.098 186.000 C 222.670 186.000,223.848 186.115,222.180 182.600 C 221.950 182.116,221.721 162.517,221.600 132.971 C 221.416 87.954,221.348 84.090,220.729 83.471 C 219.820 82.563,219.839 82.551,218.756 84.655 " stroke="none" fill="#074efc" fill-rule="evenodd"></path><path id="path1" d="M168.400 1.000 L 168.400 2.000 160.100 2.045 C 152.639 2.085,150.748 2.137,149.385 2.339 C 149.157 2.372,148.940 2.805,148.903 3.300 C 148.691 6.131,149.030 5.993,142.092 6.063 C 138.632 6.098,135.485 6.100,135.100 6.068 C 134.715 6.036,134.400 6.207,134.400 6.448 C 134.400 6.688,134.139 6.786,133.820 6.663 C 133.413 6.507,133.314 6.633,133.488 7.086 C 133.656 7.524,133.581 7.636,133.254 7.434 C 132.915 7.224,132.825 7.422,132.949 8.106 C 133.237 9.698,132.775 9.916,128.813 10.061 L 125.025 10.200 124.876 12.000 C 124.794 12.990,124.695 13.833,124.656 13.874 C 124.618 13.914,122.204 13.987,119.293 14.035 C 114.444 14.115,114.000 14.184,114.000 14.861 C 114.000 15.267,113.843 15.600,113.650 15.600 C 113.458 15.600,113.192 16.140,113.060 16.800 C 112.834 17.930,109.768 18.532,106.700 18.047 C 106.535 18.021,106.397 18.225,106.394 18.500 C 106.390 18.833,106.258 18.800,106.000 18.400 C 105.554 17.709,105.574 17.658,105.401 19.932 C 105.235 22.119,105.565 21.942,101.479 22.032 C 97.828 22.113,97.471 22.283,97.365 24.000 C 97.252 25.845,97.206 25.927,96.401 25.716 C 95.961 25.601,95.165 25.793,94.631 26.143 C 93.902 26.620,93.610 26.657,93.461 26.290 C 93.352 26.020,93.249 26.655,93.232 27.700 C 93.206 29.211,93.057 29.610,92.500 29.649 C 92.115 29.676,90.810 29.734,89.600 29.777 C 85.996 29.906,85.541 29.981,85.800 30.400 C 85.936 30.620,85.895 30.800,85.709 30.800 C 85.523 30.800,85.326 31.376,85.273 32.079 C 85.150 33.687,85.097 33.733,83.400 33.733 C 82.470 33.733,82.000 33.920,82.000 34.290 C 82.000 34.597,81.849 34.754,81.664 34.640 C 81.480 34.526,81.304 35.080,81.274 35.873 C 81.206 37.701,81.323 37.623,78.552 37.664 C 75.215 37.714,74.066 38.276,73.574 40.100 C 73.170 41.598,72.970 41.711,70.726 41.709 C 69.955 41.708,68.996 43.691,69.337 44.580 C 69.628 45.339,69.277 45.543,67.466 45.665 C 66.660 45.719,65.978 45.907,65.950 46.082 C 65.922 46.257,65.855 46.580,65.800 46.800 C 65.745 47.020,65.677 47.740,65.650 48.400 C 65.606 49.456,65.456 49.600,64.400 49.600 C 62.860 49.600,61.600 50.860,61.600 52.400 C 61.600 53.472,61.470 53.600,60.374 53.600 C 58.456 53.600,57.779 54.163,57.666 55.854 C 57.542 57.691,57.691 57.542,55.854 57.666 C 54.163 57.779,53.600 58.456,53.600 60.374 C 53.600 61.451,53.464 61.600,52.476 61.600 C 50.914 61.600,49.981 62.399,49.651 64.020 C 49.432 65.096,49.153 65.425,48.385 65.512 C 45.962 65.787,45.769 65.926,45.666 67.453 C 45.539 69.340,45.309 69.688,44.383 69.395 C 43.405 69.084,41.782 70.007,41.736 70.900 C 41.716 71.285,41.678 71.932,41.650 72.337 C 41.617 72.829,41.079 73.230,40.029 73.544 C 38.217 74.087,37.722 75.175,37.660 78.755 C 37.616 81.310,37.689 81.206,35.873 81.274 C 35.080 81.304,34.526 81.480,34.640 81.664 C 34.754 81.849,34.597 82.000,34.290 82.000 C 33.920 82.000,33.733 82.470,33.733 83.400 C 33.733 85.097,33.687 85.150,32.079 85.273 C 31.376 85.326,30.800 85.523,30.800 85.709 C 30.800 85.895,30.642 85.950,30.450 85.831 C 30.000 85.553,29.669 87.963,29.754 90.900 L 29.821 93.200 27.811 93.232 C 26.705 93.249,26.025 93.354,26.299 93.465 C 26.684 93.620,26.661 93.863,26.199 94.522 C 25.870 94.993,25.600 95.788,25.600 96.289 C 25.600 97.259,25.581 97.271,23.920 97.365 C 22.160 97.465,22.161 97.462,22.052 102.700 C 22.002 105.110,21.963 105.200,20.963 105.200 C 18.614 105.200,18.000 106.228,18.000 110.163 C 18.000 112.875,17.936 113.108,17.241 112.927 C 16.823 112.817,16.058 112.963,15.541 113.249 C 15.023 113.536,14.496 113.742,14.369 113.708 C 14.242 113.674,14.131 114.131,14.124 114.723 C 14.034 121.472,14.075 121.234,13.039 120.974 C 12.353 120.802,11.955 120.943,11.651 121.466 C 11.416 121.870,11.219 121.975,11.212 121.700 C 11.205 121.425,11.009 121.200,10.776 121.200 C 10.543 121.200,10.456 121.368,10.583 121.572 C 10.709 121.777,10.657 122.041,10.467 122.159 C 10.276 122.277,10.083 124.670,10.037 127.477 C 9.955 132.529,9.724 133.376,8.548 132.925 C 6.857 132.276,6.200 133.985,6.059 139.400 C 5.908 145.163,5.867 145.339,4.747 144.983 C 3.896 144.713,2.672 145.469,3.028 146.045 C 3.149 146.240,3.087 146.400,2.890 146.400 C 2.694 146.400,2.506 146.625,2.474 146.900 C 2.155 149.558,2.057 151.964,2.031 157.700 L 2.000 164.400 1.000 164.400 L 0.000 164.400 0.000 202.000 L 0.000 239.600 1.000 239.600 L 2.000 239.600 2.058 245.700 C 2.090 249.055,2.074 252.406,2.022 253.146 C 1.963 253.979,2.082 254.396,2.335 254.240 C 2.559 254.102,2.857 254.351,2.998 254.794 C 3.279 255.679,3.996 255.896,4.006 255.100 C 4.011 254.726,4.098 254.735,4.351 255.134 C 4.537 255.428,4.809 255.639,4.955 255.604 C 5.807 255.398,5.984 256.304,6.026 261.100 C 6.053 264.222,6.231 266.400,6.460 266.400 C 6.673 266.400,6.757 266.545,6.647 266.723 C 6.538 266.901,7.197 267.091,8.112 267.145 C 10.182 267.267,9.944 266.635,10.021 272.211 C 10.060 275.100,10.267 277.229,10.543 277.577 C 10.895 278.021,10.885 278.084,10.500 277.853 C 10.225 277.688,10.000 277.733,10.000 277.953 C 10.000 278.545,10.749 278.905,12.348 279.081 C 14.125 279.277,13.923 278.802,14.053 283.104 C 14.114 285.137,14.263 286.818,14.382 286.841 C 14.502 286.863,15.296 286.944,16.147 287.021 C 18.100 287.197,17.924 286.844,18.053 290.836 C 18.123 292.995,18.356 294.443,18.682 294.748 C 19.088 295.127,19.201 295.120,19.206 294.716 C 19.211 294.309,19.284 294.313,19.551 294.734 C 19.737 295.028,20.004 295.253,20.145 295.234 C 21.827 295.009,22.000 295.192,22.000 297.200 C 22.000 299.206,21.858 299.378,20.322 299.225 C 18.442 299.037,18.121 300.237,18.033 307.796 C 17.947 315.081,17.619 316.652,16.429 315.474 C 16.059 315.108,15.859 315.161,15.551 315.708 C 15.331 316.098,14.956 316.296,14.717 316.149 C 14.432 315.973,14.352 316.239,14.484 316.928 C 14.594 317.504,14.521 317.875,14.321 317.751 C 14.122 317.628,13.996 317.948,14.041 318.464 C 14.087 318.979,14.096 322.865,14.062 327.100 L 14.000 334.800 12.889 334.800 C 10.222 334.800,10.068 335.246,10.019 343.093 C 9.972 350.652,9.919 350.864,8.069 350.940 C 7.409 350.967,6.954 351.126,7.058 351.294 C 7.162 351.462,7.046 351.600,6.800 351.600 C 6.554 351.600,6.464 351.780,6.600 352.000 C 6.736 352.220,6.672 352.400,6.457 352.400 C 6.220 352.400,6.048 355.092,6.019 359.243 C 5.969 366.465,5.789 367.200,4.132 366.947 C 2.945 366.766,2.344 367.666,2.530 369.347 C 2.616 370.134,2.537 370.685,2.353 370.571 C 2.169 370.457,2.041 371.137,2.068 372.082 C 2.095 373.027,2.091 376.635,2.058 380.100 L 2.000 386.400 1.000 386.400 L 0.000 386.400 0.000 393.200 L 0.000 400.000 9.000 400.000 L 18.000 400.000 18.000 399.000 L 18.000 398.000 24.100 397.956 C 27.455 397.931,30.625 397.947,31.145 397.990 C 31.665 398.034,31.989 397.905,31.865 397.705 C 31.741 397.505,32.018 397.354,32.480 397.370 C 33.174 397.395,33.344 397.127,33.455 395.838 C 33.530 394.979,33.644 394.223,33.710 394.157 C 33.775 394.091,37.873 394.010,42.815 393.976 C 51.307 393.919,53.149 393.688,52.572 392.755 C 52.451 392.560,52.529 392.400,52.745 392.400 C 52.960 392.400,53.255 391.860,53.400 391.200 L 53.664 390.000 59.732 389.959 C 63.069 389.937,66.354 389.948,67.031 389.984 C 68.579 390.066,69.302 389.219,69.132 387.520 L 69.000 386.200 76.770 386.091 C 82.169 386.015,84.725 385.832,85.146 385.491 C 85.628 385.101,85.692 385.103,85.453 385.500 C 85.288 385.775,85.343 386.000,85.576 386.000 C 85.809 386.000,86.003 385.775,86.006 385.500 C 86.011 385.143,86.113 385.159,86.366 385.558 C 86.567 385.877,87.005 386.007,87.385 385.861 C 87.751 385.721,87.951 385.445,87.830 385.248 C 87.708 385.052,87.875 384.670,88.200 384.400 C 88.525 384.130,88.693 383.750,88.572 383.555 C 88.451 383.360,88.543 383.200,88.776 383.200 C 89.009 383.200,89.200 382.938,89.200 382.618 C 89.200 381.986,97.451 381.678,108.080 381.912 L 113.159 382.024 113.011 383.190 C 112.674 385.857,112.888 386.000,117.228 386.000 L 121.162 386.000 121.006 387.232 C 120.800 388.863,121.119 389.606,121.899 389.307 C 122.317 389.146,122.433 389.222,122.242 389.532 C 122.027 389.881,123.332 390.000,127.354 390.000 L 132.756 390.000 132.878 391.900 L 133.000 393.800 138.900 393.911 C 145.347 394.032,144.985 393.873,144.812 396.500 C 144.769 397.159,144.952 397.624,145.270 397.661 C 145.561 397.694,145.980 397.764,146.200 397.815 C 146.420 397.866,149.705 397.928,153.500 397.954 L 160.400 398.000 160.400 399.000 L 160.400 400.000 200.000 400.000 L 239.600 400.000 239.600 399.000 L 239.600 398.000 247.000 398.000 C 251.667 398.000,254.400 397.852,254.400 397.600 C 254.400 397.380,254.614 397.245,254.876 397.300 C 255.169 397.361,255.382 396.814,255.430 395.880 C 255.530 393.889,255.049 394.039,261.518 393.978 L 267.200 393.924 267.200 391.962 L 267.200 390.000 272.751 390.000 C 278.836 390.000,279.002 389.938,279.142 387.621 C 279.246 385.890,278.796 386.078,283.191 385.929 L 286.973 385.800 287.034 384.600 C 287.176 381.835,286.871 382.039,291.058 381.914 L 294.916 381.800 295.078 380.213 C 295.278 378.259,294.778 378.498,299.000 378.337 L 302.600 378.200 302.800 376.236 L 303.000 374.272 306.303 374.362 C 308.980 374.434,309.651 374.333,309.845 373.828 C 309.976 373.485,310.223 373.290,310.392 373.395 C 310.562 373.500,310.657 373.067,310.603 372.432 C 310.464 370.804,310.804 370.450,312.612 370.341 C 314.489 370.227,314.786 369.896,314.794 367.900 L 314.800 366.400 316.700 366.359 C 317.745 366.337,319.185 366.351,319.900 366.390 C 320.675 366.433,321.200 366.270,321.200 365.988 C 321.200 365.727,321.461 365.614,321.780 365.737 C 322.167 365.885,322.285 365.767,322.137 365.380 C 322.014 365.061,322.125 364.800,322.382 364.800 C 322.640 364.800,322.818 364.485,322.779 364.100 C 322.629 362.627,322.829 362.442,324.700 362.322 C 326.738 362.191,326.627 362.354,326.761 359.300 C 326.791 358.596,327.039 358.399,327.900 358.395 C 329.535 358.386,330.820 357.963,330.759 357.452 C 330.469 355.016,330.779 354.400,332.300 354.394 C 333.884 354.387,334.888 353.969,334.774 353.363 C 334.358 351.158,334.781 350.506,336.800 350.238 L 338.800 349.972 338.800 348.186 L 338.800 346.400 341.300 346.357 C 345.088 346.293,345.408 346.240,345.300 345.700 C 345.245 345.425,345.425 345.245,345.700 345.300 C 346.240 345.408,346.293 345.088,346.357 341.300 L 346.400 338.800 348.186 338.800 L 349.972 338.800 350.238 336.800 C 350.506 334.781,351.158 334.358,353.363 334.774 C 353.969 334.888,354.387 333.884,354.394 332.300 C 354.400 330.779,355.016 330.469,357.452 330.759 C 357.963 330.820,358.386 329.535,358.395 327.900 C 358.399 327.039,358.596 326.791,359.300 326.761 C 362.341 326.627,362.193 326.723,362.299 324.824 C 362.406 322.918,362.845 322.382,364.044 322.696 C 364.481 322.810,364.800 322.687,364.800 322.404 C 364.800 322.135,365.061 322.014,365.380 322.137 C 365.767 322.285,365.885 322.167,365.737 321.780 C 365.614 321.461,365.727 321.200,365.988 321.200 C 366.280 321.200,366.435 320.627,366.392 319.700 C 366.178 315.070,366.261 314.801,367.900 314.794 C 369.484 314.787,370.488 314.369,370.374 313.763 C 369.942 311.475,370.401 310.580,371.984 310.626 C 372.855 310.651,373.486 310.539,373.386 310.378 C 373.286 310.216,373.474 309.981,373.802 309.854 C 374.268 309.676,374.400 308.874,374.400 306.234 L 374.400 302.844 376.300 302.722 L 378.200 302.600 378.337 299.000 C 378.498 294.778,378.259 295.278,380.213 295.078 L 381.800 294.916 381.914 291.058 C 382.037 286.922,381.991 286.997,384.300 287.184 C 384.895 287.233,385.200 287.036,385.200 286.605 C 385.200 286.246,385.380 286.064,385.600 286.200 C 385.855 286.358,386.000 285.137,386.000 282.824 L 386.000 279.200 387.520 279.200 C 389.879 279.200,390.000 278.884,390.000 272.720 L 390.000 267.200 391.700 267.153 C 392.635 267.127,393.535 267.127,393.700 267.153 C 393.865 267.179,393.979 267.065,393.953 266.900 C 393.927 266.735,393.927 264.125,393.953 261.100 L 394.000 255.600 395.200 255.600 C 395.860 255.600,396.400 255.409,396.400 255.176 C 396.400 254.943,396.580 254.864,396.800 255.000 C 397.020 255.136,397.200 254.967,397.200 254.624 C 397.200 254.281,397.381 254.000,397.602 254.000 C 397.822 254.000,397.969 253.505,397.928 252.900 C 397.887 252.295,397.887 249.055,397.927 245.700 L 398.000 239.600 399.000 239.600 L 400.000 239.600 400.000 200.000 L 400.000 160.400 399.019 160.400 L 398.037 160.400 397.860 153.700 C 397.762 150.015,397.653 146.685,397.616 146.301 C 397.534 145.432,396.259 144.715,395.084 144.878 C 394.217 144.998,394.198 144.903,394.088 139.923 C 393.958 134.008,393.624 133.061,391.600 132.863 C 390.830 132.788,390.157 132.684,390.104 132.633 C 390.050 132.582,389.992 130.076,389.975 127.064 C 389.957 124.053,389.791 121.682,389.605 121.797 C 389.420 121.911,389.196 121.788,389.107 121.522 C 389.019 121.257,388.284 121.040,387.473 121.040 L 386.000 121.040 385.953 118.020 C 385.927 116.359,385.927 114.865,385.953 114.700 C 385.979 114.535,385.775 114.397,385.500 114.394 C 385.162 114.390,385.190 114.267,385.589 114.015 C 386.345 113.537,385.266 113.066,383.322 113.027 L 382.002 113.000 382.001 109.514 C 382.000 105.717,381.691 105.200,379.426 105.200 C 378.391 105.200,378.021 103.163,378.353 99.300 C 378.403 98.716,378.210 98.400,377.803 98.400 C 377.457 98.400,377.071 98.130,376.945 97.800 C 376.813 97.458,376.217 97.200,375.557 97.200 C 374.538 97.200,374.400 97.057,374.400 96.000 C 374.400 94.460,373.140 93.200,371.600 93.200 L 370.400 93.200 370.339 90.100 C 370.306 88.395,370.236 86.820,370.185 86.600 C 370.134 86.380,370.072 85.996,370.046 85.747 C 370.020 85.495,369.271 85.284,368.358 85.272 C 366.407 85.245,366.299 85.163,366.305 83.717 C 366.312 81.937,365.786 81.337,364.164 81.276 C 362.295 81.205,362.468 81.557,362.253 77.385 C 362.035 73.159,362.177 73.629,361.200 73.884 C 360.719 74.010,360.400 73.896,360.400 73.600 C 360.400 73.304,360.081 73.190,359.600 73.316 C 358.625 73.571,358.461 73.334,358.337 71.491 C 358.284 70.700,358.111 70.131,357.954 70.228 C 357.797 70.325,357.593 70.179,357.501 69.902 C 357.409 69.626,356.718 69.400,355.967 69.400 C 354.805 69.400,354.583 69.250,354.488 68.400 C 354.229 66.089,353.986 65.600,353.092 65.595 C 351.322 65.584,350.400 65.126,350.395 64.253 C 350.380 62.056,349.995 61.600,348.153 61.600 L 346.400 61.600 346.400 60.080 C 346.400 58.164,345.836 57.600,343.920 57.600 C 342.427 57.600,342.400 57.573,342.400 56.080 C 342.400 54.214,341.836 53.600,340.120 53.600 C 338.974 53.600,338.800 53.466,338.800 52.586 C 338.800 50.855,337.688 49.600,336.154 49.600 C 334.917 49.600,334.800 49.496,334.800 48.405 C 334.800 46.737,333.710 45.600,332.111 45.600 C 330.995 45.600,330.791 45.451,330.740 44.600 C 330.628 42.736,330.600 42.600,330.248 42.200 C 330.055 41.979,329.261 41.763,328.484 41.719 C 326.995 41.635,326.332 41.043,326.687 40.117 C 326.804 39.812,326.563 39.287,326.150 38.951 C 325.738 38.615,325.670 38.473,326.000 38.634 C 326.330 38.796,326.460 38.774,326.288 38.586 C 325.848 38.102,324.991 37.945,321.840 37.768 C 318.609 37.587,318.720 37.657,318.720 35.826 C 318.720 34.321,318.315 33.832,317.000 33.751 C 316.560 33.723,315.885 33.678,315.500 33.651 C 314.996 33.614,314.800 33.256,314.800 32.371 C 314.800 31.696,314.530 30.873,314.200 30.543 C 313.870 30.213,313.600 30.068,313.600 30.220 C 313.600 30.373,313.372 30.309,313.094 30.078 C 312.812 29.844,311.310 29.710,309.694 29.775 L 306.800 29.891 306.800 28.133 C 306.800 26.199,306.422 25.873,304.122 25.827 C 303.047 25.805,302.791 25.633,302.741 24.900 C 302.708 24.405,302.662 23.775,302.640 23.500 C 302.554 22.429,301.641 22.100,298.597 22.041 C 295.206 21.975,294.667 21.669,295.075 20.044 C 295.258 19.313,295.190 19.159,294.790 19.406 C 294.416 19.637,294.334 19.550,294.504 19.105 C 294.821 18.280,293.758 18.012,290.143 18.005 C 287.317 18.000,286.332 17.481,287.025 16.360 C 287.429 15.706,286.793 14.428,286.180 14.663 C 285.861 14.786,285.600 14.704,285.600 14.482 C 285.600 14.234,283.638 14.057,280.520 14.025 C 274.656 13.964,275.180 14.164,275.041 11.942 C 274.981 10.983,274.722 10.178,274.466 10.150 C 274.210 10.123,272.470 10.078,270.600 10.050 C 267.333 10.002,267.200 9.964,267.200 9.080 C 267.200 8.574,266.986 7.705,266.724 7.150 L 266.247 6.141 259.031 6.043 C 251.628 5.944,251.125 5.829,251.416 4.315 C 251.606 3.328,250.357 2.106,249.152 2.101 C 248.629 2.098,244.465 2.075,239.900 2.048 L 231.600 2.000 231.600 1.000 L 231.600 0.000 200.000 0.000 L 168.400 0.000 168.400 1.000 M224.931 78.792 C 225.594 79.913,225.634 82.962,225.609 130.300 L 225.583 180.618 226.753 181.309 C 227.836 181.948,230.307 182.000,259.677 182.000 L 291.430 182.000 292.700 183.100 L 293.970 184.200 293.480 186.543 C 293.130 188.219,292.636 189.243,291.744 190.143 C 291.059 190.834,290.178 192.092,289.786 192.937 C 289.394 193.783,288.646 194.669,288.125 194.907 C 287.603 195.145,286.837 196.106,286.423 197.042 C 286.008 197.979,285.193 199.159,284.611 199.665 C 284.029 200.171,282.996 201.559,282.315 202.749 C 281.634 203.939,280.637 205.292,280.099 205.756 C 279.562 206.220,278.759 207.309,278.315 208.175 C 277.405 209.949,276.943 210.481,275.762 211.113 C 275.310 211.355,274.722 212.283,274.454 213.176 C 274.165 214.142,273.482 215.159,272.769 215.686 C 272.109 216.174,271.182 217.349,270.708 218.299 C 270.234 219.248,269.099 220.784,268.187 221.712 C 267.274 222.640,266.351 223.940,266.136 224.600 C 265.920 225.260,265.168 226.160,264.465 226.600 C 263.710 227.072,263.085 227.860,262.938 228.523 C 262.802 229.140,262.026 230.310,261.213 231.123 C 260.400 231.935,259.147 233.642,258.429 234.916 C 257.711 236.190,256.678 237.524,256.133 237.881 C 255.589 238.237,254.775 239.312,254.325 240.269 C 253.876 241.226,252.990 242.315,252.357 242.689 C 251.686 243.085,251.015 243.959,250.748 244.784 C 250.495 245.563,249.639 246.934,248.845 247.831 C 248.050 248.728,247.040 249.985,246.600 250.623 C 246.160 251.261,245.145 252.507,244.345 253.392 C 243.545 254.276,242.627 255.630,242.307 256.400 C 241.986 257.170,241.251 258.053,240.672 258.362 C 240.079 258.679,239.422 259.526,239.164 260.308 C 238.913 261.070,238.039 262.361,237.222 263.178 C 236.406 263.994,235.153 265.685,234.438 266.934 C 233.723 268.183,232.792 269.390,232.369 269.617 C 231.945 269.843,231.143 270.929,230.585 272.030 C 230.027 273.130,229.132 274.230,228.596 274.475 C 228.009 274.742,227.360 275.602,226.966 276.634 C 226.606 277.577,225.796 278.743,225.166 279.226 C 224.537 279.708,223.634 280.903,223.161 281.881 C 222.688 282.858,221.648 284.288,220.850 285.057 C 220.053 285.826,219.040 287.191,218.600 288.091 C 218.160 288.990,217.444 289.923,217.009 290.163 C 215.907 290.772,215.228 291.669,215.213 292.536 C 215.206 292.940,214.379 294.069,213.376 295.044 C 212.373 296.018,211.366 297.352,211.137 298.008 C 210.909 298.664,210.559 299.200,210.361 299.200 C 210.162 299.200,210.000 299.443,210.000 299.740 C 210.000 300.037,209.484 300.676,208.853 301.159 C 208.222 301.643,207.289 302.849,206.779 303.840 C 206.270 304.831,205.346 305.941,204.726 306.307 C 204.107 306.673,203.600 307.176,203.600 307.425 C 203.600 308.344,202.351 310.340,201.375 310.980 C 200.821 311.342,200.060 312.305,199.684 313.120 C 199.308 313.934,198.910 314.690,198.799 314.800 C 198.689 314.910,198.354 315.475,198.055 316.056 C 197.756 316.637,197.085 317.341,196.563 317.620 C 196.040 317.899,195.499 318.504,195.360 318.964 C 194.994 320.173,193.244 322.400,192.660 322.400 C 192.385 322.400,191.922 323.075,191.630 323.900 C 191.173 325.191,189.550 327.525,187.881 329.290 C 187.616 329.571,186.895 330.574,186.281 331.520 C 185.666 332.466,184.901 333.340,184.581 333.463 C 184.261 333.585,183.656 334.461,183.237 335.409 C 182.345 337.425,181.279 338.217,178.479 338.943 C 174.071 340.087,174.381 344.156,174.408 285.658 C 174.428 241.108,174.362 235.410,173.822 235.108 C 173.487 234.921,158.945 234.730,141.506 234.684 C 107.930 234.595,107.756 234.585,106.774 232.752 C 106.042 231.383,107.211 227.614,108.651 226.702 C 108.910 226.538,109.612 225.548,110.212 224.502 C 110.812 223.456,111.865 222.060,112.552 221.400 C 113.238 220.740,114.132 219.546,114.537 218.748 C 114.943 217.949,115.670 217.084,116.153 216.825 C 116.635 216.567,117.358 215.601,117.757 214.678 C 118.157 213.755,119.095 212.406,119.842 211.681 C 120.589 210.955,121.200 210.218,121.200 210.043 C 121.200 209.868,121.651 209.201,122.202 208.562 C 122.754 207.923,123.303 207.094,123.423 206.720 C 123.543 206.347,123.988 205.931,124.412 205.796 C 124.836 205.662,125.576 204.695,126.056 203.647 C 126.551 202.568,127.484 201.380,128.208 200.905 C 128.971 200.405,129.578 199.610,129.714 198.933 C 129.839 198.310,130.740 196.931,131.715 195.869 C 132.691 194.807,133.898 193.119,134.398 192.118 C 134.898 191.116,135.640 190.210,136.046 190.104 C 136.452 189.998,137.242 188.943,137.801 187.761 C 138.439 186.413,139.242 185.392,139.956 185.023 C 140.654 184.662,141.181 184.003,141.320 183.317 C 141.444 182.703,142.327 181.365,143.280 180.344 C 144.234 179.324,145.426 177.664,145.929 176.656 C 146.433 175.648,147.325 174.445,147.912 173.983 C 148.500 173.521,149.358 172.391,149.820 171.472 C 150.282 170.552,151.072 169.593,151.576 169.340 C 152.080 169.087,152.808 168.187,153.195 167.340 C 153.581 166.493,154.387 165.260,154.986 164.600 C 155.585 163.940,156.722 162.410,157.512 161.200 C 159.102 158.764,159.768 158.000,160.296 158.000 C 160.491 158.000,161.048 157.089,161.534 155.976 C 162.085 154.713,162.861 153.699,163.598 153.276 C 164.273 152.890,164.881 152.139,165.016 151.525 C 165.146 150.933,166.136 149.493,167.216 148.325 C 168.295 147.156,169.183 145.975,169.189 145.700 C 169.195 145.425,169.380 145.200,169.600 145.200 C 169.820 145.200,170.000 144.909,170.000 144.553 C 170.000 144.197,170.702 143.225,171.561 142.392 C 172.419 141.559,173.250 140.455,173.407 139.938 C 173.763 138.766,175.167 137.200,175.862 137.200 C 176.150 137.200,176.507 136.705,176.657 136.100 C 177.014 134.663,178.553 132.351,180.467 130.379 C 181.310 129.510,182.000 128.544,182.000 128.233 C 182.000 127.922,182.720 127.097,183.600 126.400 C 184.480 125.703,185.200 124.833,185.200 124.466 C 185.201 123.654,186.674 121.899,187.900 121.249 C 188.395 120.986,188.800 120.484,188.800 120.133 C 188.800 119.306,190.312 116.825,191.440 115.800 C 191.924 115.360,192.841 114.168,193.478 113.152 C 194.114 112.135,195.148 110.863,195.774 110.324 C 196.401 109.785,197.113 108.730,197.357 107.979 C 197.615 107.183,198.331 106.278,199.077 105.807 C 199.779 105.363,200.463 104.528,200.597 103.952 C 200.731 103.376,201.630 102.026,202.596 100.952 C 203.561 99.878,204.767 98.163,205.276 97.141 C 205.784 96.119,206.695 94.983,207.300 94.618 C 207.906 94.253,208.754 93.180,209.185 92.233 C 209.616 91.287,210.437 90.206,211.010 89.830 C 211.582 89.455,212.383 88.373,212.789 87.425 C 213.196 86.477,214.068 85.149,214.728 84.474 C 215.874 83.301,216.436 82.411,217.651 79.839 C 218.807 77.392,223.690 76.690,224.931 78.792 M396.158 145.668 C 395.965 145.980,396.084 146.053,396.514 145.888 C 396.971 145.713,397.093 145.813,396.933 146.231 C 396.760 146.682,396.578 146.713,396.158 146.365 C 395.668 145.959,395.726 145.200,396.247 145.200 C 396.357 145.200,396.317 145.411,396.158 145.668 " stroke="none" fill="#d4e4fc" fill-rule="evenodd"></path><path id="path2" d="M219.400 78.154 C 218.740 78.442,217.953 79.200,217.651 79.839 C 216.436 82.411,215.874 83.301,214.728 84.474 C 214.068 85.149,213.196 86.477,212.789 87.425 C 212.383 88.373,211.582 89.455,211.010 89.830 C 210.437 90.206,209.616 91.287,209.185 92.233 C 208.754 93.180,207.906 94.253,207.300 94.618 C 206.695 94.983,205.784 96.119,205.276 97.141 C 204.767 98.163,203.561 99.878,202.596 100.952 C 201.630 102.026,200.731 103.376,200.597 103.952 C 200.463 104.528,199.779 105.363,199.077 105.807 C 198.331 106.278,197.615 107.183,197.357 107.979 C 197.113 108.730,196.401 109.785,195.774 110.324 C 195.148 110.863,194.114 112.135,193.478 113.152 C 192.841 114.168,191.924 115.360,191.440 115.800 C 190.312 116.825,188.800 119.306,188.800 120.133 C 188.800 120.484,188.395 120.986,187.900 121.249 C 186.674 121.899,185.201 123.654,185.200 124.466 C 185.200 124.833,184.480 125.703,183.600 126.400 C 182.720 127.097,182.000 127.922,182.000 128.233 C 182.000 128.544,181.310 129.510,180.467 130.379 C 178.553 132.351,177.014 134.663,176.657 136.100 C 176.507 136.705,176.150 137.200,175.862 137.200 C 175.167 137.200,173.763 138.766,173.407 139.938 C 173.250 140.455,172.419 141.559,171.561 142.392 C 170.702 143.225,170.000 144.197,170.000 144.553 C 170.000 144.909,169.820 145.200,169.600 145.200 C 169.380 145.200,169.195 145.425,169.189 145.700 C 169.183 145.975,168.295 147.156,167.216 148.325 C 166.136 149.493,165.146 150.933,165.016 151.525 C 164.881 152.139,164.273 152.890,163.598 153.276 C 162.861 153.699,162.085 154.713,161.534 155.976 C 161.048 157.089,160.491 158.000,160.296 158.000 C 159.768 158.000,159.102 158.764,157.512 161.200 C 156.722 162.410,155.585 163.940,154.986 164.600 C 154.387 165.260,153.581 166.493,153.195 167.340 C 152.808 168.187,152.080 169.087,151.576 169.340 C 151.072 169.593,150.282 170.552,149.820 171.472 C 149.358 172.391,148.500 173.521,147.912 173.983 C 147.325 174.445,146.433 175.648,145.929 176.656 C 145.426 177.664,144.234 179.324,143.280 180.344 C 142.327 181.365,141.444 182.703,141.320 183.317 C 141.181 184.003,140.654 184.662,139.956 185.023 C 139.242 185.392,138.439 186.413,137.801 187.761 C 137.242 188.943,136.452 189.998,136.046 190.104 C 135.640 190.210,134.898 191.116,134.398 192.118 C 133.898 193.119,132.691 194.807,131.715 195.869 C 130.740 196.931,129.839 198.310,129.714 198.933 C 129.578 199.610,128.971 200.405,128.208 200.905 C 127.484 201.380,126.551 202.568,126.056 203.647 C 125.576 204.695,124.836 205.662,124.412 205.796 C 123.988 205.931,123.543 206.347,123.423 206.720 C 123.303 207.094,122.754 207.923,122.202 208.562 C 121.651 209.201,121.200 209.868,121.200 210.043 C 121.200 210.218,120.589 210.955,119.842 211.681 C 119.095 212.406,118.157 213.755,117.757 214.678 C 117.358 215.601,116.635 216.567,116.153 216.825 C 115.670 217.084,114.943 217.949,114.537 218.748 C 114.132 219.546,113.238 220.740,112.552 221.400 C 111.865 222.060,110.812 223.456,110.212 224.502 C 109.612 225.548,108.910 226.538,108.651 226.702 C 107.211 227.614,106.042 231.383,106.774 232.752 C 107.756 234.585,107.930 234.595,141.506 234.684 C 158.945 234.730,173.487 234.921,173.822 235.108 C 174.362 235.410,174.428 241.108,174.408 285.658 C 174.381 344.156,174.071 340.087,178.479 338.943 C 181.279 338.217,182.345 337.425,183.237 335.409 C 183.656 334.461,184.261 333.585,184.581 333.463 C 184.901 333.340,185.666 332.466,186.281 331.520 C 186.895 330.574,187.616 329.571,187.881 329.290 C 189.550 327.525,191.173 325.191,191.630 323.900 C 191.922 323.075,192.385 322.400,192.660 322.400 C 193.244 322.400,194.994 320.173,195.360 318.964 C 195.499 318.504,196.040 317.899,196.563 317.620 C 197.085 317.341,197.756 316.637,198.055 316.056 C 198.354 315.475,198.689 314.910,198.799 314.800 C 198.910 314.690,199.308 313.934,199.684 313.120 C 200.060 312.305,200.821 311.342,201.375 310.980 C 202.351 310.340,203.600 308.344,203.600 307.425 C 203.600 307.176,204.107 306.673,204.726 306.307 C 205.346 305.941,206.270 304.831,206.779 303.840 C 207.289 302.849,208.222 301.643,208.853 301.159 C 209.484 300.676,210.000 300.037,210.000 299.740 C 210.000 299.443,210.162 299.200,210.361 299.200 C 210.559 299.200,210.909 298.664,211.137 298.008 C 211.366 297.352,212.373 296.018,213.376 295.044 C 214.379 294.069,215.206 292.940,215.213 292.536 C 215.228 291.669,215.907 290.772,217.009 290.163 C 217.444 289.923,218.160 288.990,218.600 288.091 C 219.040 287.191,220.053 285.826,220.850 285.057 C 221.648 284.288,222.688 282.858,223.161 281.881 C 223.634 280.903,224.537 279.708,225.166 279.226 C 225.796 278.743,226.606 277.577,226.966 276.634 C 227.360 275.602,228.009 274.742,228.596 274.475 C 229.132 274.230,230.027 273.130,230.585 272.030 C 231.143 270.929,231.945 269.843,232.369 269.617 C 232.792 269.390,233.723 268.183,234.438 266.934 C 235.153 265.685,236.406 263.994,237.222 263.178 C 238.039 262.361,238.913 261.070,239.164 260.308 C 239.422 259.526,240.079 258.679,240.672 258.362 C 241.251 258.053,241.986 257.170,242.307 256.400 C 242.627 255.630,243.545 254.276,244.345 253.392 C 245.145 252.507,246.160 251.261,246.600 250.623 C 247.040 249.985,248.050 248.728,248.845 247.831 C 249.639 246.934,250.495 245.563,250.748 244.784 C 251.015 243.959,251.686 243.085,252.357 242.689 C 252.990 242.315,253.876 241.226,254.325 240.269 C 254.775 239.312,255.589 238.237,256.133 237.881 C 256.678 237.524,257.711 236.190,258.429 234.916 C 259.147 233.642,260.400 231.935,261.213 231.123 C 262.026 230.310,262.802 229.140,262.938 228.523 C 263.085 227.860,263.710 227.072,264.465 226.600 C 265.168 226.160,265.920 225.260,266.136 224.600 C 266.351 223.940,267.274 222.640,268.187 221.712 C 269.099 220.784,270.234 219.248,270.708 218.299 C 271.182 217.349,272.109 216.174,272.769 215.686 C 273.482 215.159,274.165 214.142,274.454 213.176 C 274.722 212.283,275.310 211.355,275.762 211.113 C 276.943 210.481,277.405 209.949,278.315 208.175 C 278.759 207.309,279.562 206.220,280.099 205.756 C 280.637 205.292,281.634 203.939,282.315 202.749 C 282.996 201.559,284.029 200.171,284.611 199.665 C 285.193 199.159,286.008 197.979,286.423 197.042 C 286.837 196.106,287.603 195.145,288.125 194.907 C 288.646 194.669,289.394 193.783,289.786 192.937 C 290.178 192.092,291.059 190.834,291.744 190.143 C 292.636 189.243,293.130 188.219,293.480 186.543 L 293.970 184.200 292.700 183.100 L 291.430 182.000 259.677 182.000 C 230.307 182.000,227.836 181.948,226.753 181.309 L 225.583 180.618 225.609 130.300 C 225.639 73.055,225.914 77.585,222.414 77.616 C 221.416 77.624,220.060 77.867,219.400 78.154 M222.700 80.712 L 223.600 81.292 223.600 131.227 L 223.600 181.162 225.372 182.381 L 227.144 183.600 257.672 183.604 C 274.462 183.607,288.875 183.720,289.700 183.857 C 292.730 184.358,291.160 189.526,286.510 194.361 C 285.789 195.110,285.200 195.945,285.200 196.217 C 285.200 196.489,284.564 197.407,283.786 198.256 C 283.009 199.105,282.084 200.340,281.731 201.000 C 281.378 201.660,280.638 202.650,280.087 203.200 C 279.535 203.750,278.324 205.370,277.395 206.800 C 276.466 208.230,275.232 209.836,274.653 210.370 C 274.074 210.903,273.600 211.554,273.600 211.816 C 273.600 212.077,273.049 212.901,272.375 213.646 C 271.702 214.391,270.690 215.706,270.127 216.569 C 269.564 217.431,268.742 218.511,268.300 218.969 C 267.859 219.426,266.723 220.983,265.775 222.429 C 264.828 223.875,263.747 225.312,263.372 225.623 C 262.998 225.934,262.237 226.911,261.681 227.794 C 261.125 228.677,260.070 230.003,259.335 230.740 C 258.601 231.477,258.000 232.304,258.000 232.578 C 258.000 232.852,257.537 233.599,256.971 234.238 C 256.404 234.877,255.057 236.693,253.977 238.272 C 252.897 239.852,251.812 241.269,251.567 241.420 C 251.322 241.572,250.607 242.508,249.977 243.501 C 249.347 244.494,248.285 245.907,247.616 246.642 C 246.947 247.377,246.400 248.107,246.400 248.264 C 246.400 248.420,245.638 249.460,244.706 250.574 C 242.069 253.729,240.664 255.611,238.564 258.800 C 237.768 260.010,236.616 261.540,236.005 262.200 C 235.394 262.860,234.434 264.120,233.872 265.000 C 233.309 265.880,232.343 267.163,231.725 267.852 C 231.106 268.540,230.060 270.023,229.400 271.147 C 228.740 272.271,227.916 273.285,227.568 273.400 C 227.221 273.516,226.548 274.388,226.074 275.339 C 225.599 276.289,224.850 277.393,224.410 277.791 C 223.969 278.190,223.025 279.435,222.311 280.558 C 221.598 281.681,220.590 283.050,220.072 283.600 C 219.554 284.150,218.669 285.320,218.104 286.200 C 217.540 287.080,216.689 288.165,216.214 288.611 C 215.739 289.058,215.001 290.048,214.575 290.811 C 214.149 291.575,213.223 292.786,212.518 293.502 C 211.813 294.218,210.949 295.407,210.599 296.145 C 210.249 296.883,209.456 298.007,208.837 298.643 C 208.217 299.279,207.074 300.798,206.296 302.017 C 205.518 303.237,204.568 304.494,204.186 304.811 C 203.804 305.129,203.046 306.111,202.503 306.994 C 201.959 307.877,201.071 309.050,200.529 309.600 C 199.624 310.518,198.847 311.608,194.543 318.000 C 193.728 319.210,192.749 320.424,192.367 320.698 C 191.984 320.971,191.092 322.141,190.383 323.298 C 189.674 324.454,188.572 326.030,187.933 326.800 C 187.295 327.570,186.642 328.380,186.483 328.600 C 185.592 329.829,183.385 332.629,183.170 332.800 C 183.032 332.910,182.450 333.750,181.876 334.666 C 180.418 336.994,179.227 337.168,177.302 335.335 C 176.910 334.962,176.781 324.171,176.702 284.969 L 176.600 235.078 175.000 234.239 C 173.420 233.411,173.013 233.399,143.000 233.313 C 106.754 233.209,107.413 233.264,108.826 230.437 C 109.221 229.647,109.639 228.548,109.756 227.995 C 109.872 227.442,110.740 226.080,111.684 224.968 C 112.628 223.855,113.713 222.507,114.095 221.973 C 114.477 221.438,115.377 220.209,116.095 219.242 C 116.813 218.276,118.030 216.622,118.800 215.568 C 120.967 212.601,123.717 209.022,123.999 208.800 C 124.139 208.690,125.047 207.520,126.018 206.200 C 126.988 204.880,128.461 203.010,129.291 202.044 C 130.121 201.078,130.800 200.073,130.800 199.810 C 130.800 199.548,131.342 198.808,132.005 198.167 C 132.668 197.525,133.481 196.460,133.812 195.800 C 134.142 195.140,135.490 193.255,136.807 191.611 C 138.123 189.967,139.200 188.457,139.200 188.255 C 139.200 188.053,139.842 187.148,140.626 186.244 C 142.425 184.170,144.367 181.619,146.291 178.800 C 147.117 177.590,148.085 176.330,148.442 176.000 C 148.799 175.670,149.639 174.536,150.308 173.480 C 150.978 172.425,151.977 171.142,152.529 170.631 C 153.081 170.119,153.888 169.003,154.324 168.151 C 154.759 167.298,155.516 166.240,156.005 165.800 C 156.495 165.360,157.475 164.097,158.183 162.993 C 158.892 161.889,159.796 160.661,160.193 160.264 C 161.000 159.457,162.800 156.887,162.800 156.541 C 162.800 156.418,163.610 155.417,164.600 154.316 C 165.590 153.214,166.400 152.082,166.400 151.798 C 166.400 151.515,167.016 150.742,167.770 150.080 C 168.523 149.419,169.445 148.275,169.819 147.539 C 170.194 146.803,171.082 145.480,171.793 144.600 C 172.505 143.720,173.657 142.072,174.354 140.939 C 175.051 139.805,175.872 138.781,176.179 138.663 C 176.486 138.545,177.242 137.583,177.859 136.525 C 178.848 134.828,184.142 127.944,186.088 125.825 C 186.480 125.398,186.800 124.909,186.800 124.738 C 186.800 124.567,187.295 123.891,187.900 123.236 C 189.627 121.365,190.000 120.864,190.000 120.418 C 190.000 120.189,190.597 119.327,191.326 118.501 C 192.056 117.676,193.087 116.370,193.617 115.600 C 194.147 114.830,195.441 113.129,196.491 111.820 C 197.541 110.511,198.400 109.242,198.400 109.001 C 198.400 108.759,199.120 107.812,200.000 106.896 C 200.880 105.980,201.600 105.069,201.600 104.872 C 201.600 104.674,202.292 103.722,203.138 102.756 C 203.984 101.790,205.176 100.204,205.786 99.231 C 206.949 97.379,207.380 96.805,208.446 95.681 C 208.801 95.306,209.544 94.280,210.095 93.400 C 210.647 92.520,211.751 91.112,212.549 90.272 C 213.347 89.431,214.003 88.531,214.006 88.272 C 214.010 88.012,214.567 87.171,215.245 86.402 C 215.922 85.633,217.109 83.923,217.882 82.602 C 219.757 79.398,220.320 79.177,222.700 80.712 " stroke="none" fill="#86acfc" fill-rule="evenodd"></path><path id="path3" d="M219.688 79.949 C 219.468 80.087,218.655 81.281,217.882 82.602 C 217.109 83.923,215.922 85.633,215.245 86.402 C 214.567 87.171,214.010 88.012,214.006 88.272 C 214.003 88.531,213.347 89.431,212.549 90.272 C 211.751 91.112,210.647 92.520,210.095 93.400 C 209.544 94.280,208.801 95.306,208.446 95.681 C 207.380 96.805,206.949 97.379,205.786 99.231 C 205.176 100.204,203.984 101.790,203.138 102.756 C 202.292 103.722,201.609 104.712,201.621 104.956 C 201.633 105.200,201.948 104.950,202.321 104.401 C 202.694 103.851,203.375 103.041,203.834 102.601 C 204.293 102.160,205.304 100.810,206.082 99.600 C 206.859 98.390,207.979 96.860,208.571 96.200 C 209.163 95.540,209.934 94.460,210.285 93.800 C 210.635 93.140,211.536 91.986,212.286 91.235 C 213.036 90.484,213.994 89.196,214.414 88.372 C 214.835 87.548,215.328 86.812,215.510 86.737 C 215.692 86.662,216.705 85.205,217.762 83.500 C 219.817 80.183,219.844 80.164,221.361 80.855 C 223.218 81.701,223.200 81.197,223.200 132.442 L 223.200 181.164 224.245 182.209 C 226.035 183.998,226.068 184.000,257.964 184.000 C 287.491 184.000,288.702 184.029,289.355 184.750 C 291.167 186.753,290.320 189.534,286.719 193.400 C 286.105 194.060,285.340 195.150,285.020 195.821 C 284.699 196.493,283.931 197.573,283.312 198.221 C 282.693 198.870,281.797 200.030,281.320 200.800 C 280.843 201.570,280.126 202.560,279.727 203.000 C 278.623 204.216,276.800 206.713,276.800 207.009 C 276.800 207.153,275.990 208.197,275.000 209.329 C 274.010 210.460,273.198 211.569,273.197 211.793 C 273.195 212.017,272.609 212.830,271.894 213.600 C 271.180 214.370,270.110 215.748,269.516 216.663 C 268.923 217.578,268.020 218.748,267.509 219.263 C 266.998 219.778,265.975 221.190,265.235 222.400 C 264.495 223.610,263.284 225.225,262.545 225.988 C 261.805 226.752,261.200 227.535,261.200 227.730 C 261.200 227.924,260.390 228.983,259.400 230.084 C 258.410 231.186,257.600 232.233,257.600 232.412 C 257.600 232.740,253.431 238.393,250.941 241.441 C 250.203 242.344,249.600 243.237,249.600 243.426 C 249.600 243.944,251.773 241.351,253.980 238.200 C 255.059 236.660,256.404 234.877,256.971 234.238 C 257.537 233.599,258.000 232.852,258.000 232.578 C 258.000 232.304,258.601 231.477,259.335 230.740 C 260.070 230.003,261.125 228.677,261.681 227.794 C 262.237 226.911,262.998 225.934,263.372 225.623 C 263.747 225.312,264.828 223.875,265.775 222.429 C 266.723 220.983,267.859 219.426,268.300 218.969 C 268.742 218.511,269.564 217.431,270.127 216.569 C 270.690 215.706,271.702 214.391,272.375 213.646 C 273.049 212.901,273.600 212.077,273.600 211.816 C 273.600 211.554,274.074 210.903,274.653 210.370 C 275.232 209.836,276.466 208.230,277.395 206.800 C 278.324 205.370,279.535 203.750,280.087 203.200 C 280.638 202.650,281.378 201.660,281.731 201.000 C 282.084 200.340,283.009 199.105,283.786 198.256 C 284.564 197.407,285.200 196.489,285.200 196.217 C 285.200 195.945,285.789 195.110,286.510 194.361 C 291.160 189.526,292.730 184.358,289.700 183.857 C 288.875 183.720,274.462 183.607,257.672 183.604 L 227.144 183.600 225.372 182.381 L 223.600 181.162 223.600 131.227 L 223.600 81.292 222.700 80.712 C 221.548 79.969,220.200 79.628,219.688 79.949 M199.857 106.990 C 199.229 107.734,198.453 108.850,198.132 109.471 C 197.811 110.092,196.877 111.410,196.055 112.400 C 195.234 113.390,194.132 114.830,193.607 115.600 C 193.082 116.370,192.056 117.676,191.326 118.501 C 190.597 119.327,190.000 120.209,190.000 120.461 C 190.000 120.714,190.518 120.218,191.151 119.360 C 191.784 118.502,192.684 117.403,193.151 116.917 C 193.618 116.431,194.000 115.916,194.000 115.772 C 194.000 115.629,194.693 114.676,195.540 113.656 C 196.387 112.635,197.591 110.990,198.217 110.000 C 198.842 109.010,199.544 108.017,199.777 107.793 C 200.834 106.777,201.691 105.602,201.362 105.619 C 201.163 105.629,200.486 106.246,199.857 106.990 M188.873 122.200 C 188.622 122.750,188.238 123.200,188.019 123.200 C 187.800 123.200,187.350 123.723,187.020 124.362 C 186.689 125.001,186.183 125.766,185.895 126.062 C 184.423 127.574,178.837 134.847,177.859 136.525 C 177.242 137.583,176.486 138.545,176.179 138.663 C 175.872 138.781,175.051 139.805,174.354 140.939 C 173.657 142.072,172.505 143.720,171.793 144.600 C 171.082 145.480,170.194 146.803,169.819 147.539 C 169.445 148.275,168.523 149.419,167.770 150.080 C 167.016 150.742,166.400 151.465,166.400 151.688 C 166.400 152.371,169.377 149.111,170.498 147.200 C 171.079 146.210,172.011 144.860,172.569 144.200 C 173.886 142.644,174.083 142.372,174.800 141.116 C 175.130 140.538,176.053 139.363,176.851 138.504 C 177.648 137.645,178.412 136.595,178.548 136.171 C 178.683 135.747,179.515 134.612,180.397 133.649 C 181.279 132.687,182.000 131.776,182.000 131.625 C 182.000 131.474,182.323 131.002,182.719 130.575 C 183.320 129.927,185.845 126.713,189.333 122.158 C 189.737 121.631,189.901 121.200,189.698 121.200 C 189.495 121.200,189.123 121.650,188.873 122.200 M164.500 154.381 C 163.565 155.451,162.800 156.425,162.800 156.545 C 162.800 156.888,160.995 159.462,160.193 160.264 C 159.796 160.661,158.892 161.889,158.183 162.993 C 157.475 164.097,156.495 165.360,156.005 165.800 C 155.516 166.240,154.759 167.298,154.324 168.151 C 153.888 169.003,153.081 170.119,152.529 170.631 C 151.977 171.142,150.978 172.425,150.308 173.480 C 149.639 174.536,148.796 175.670,148.435 176.000 C 147.556 176.805,146.303 178.804,146.691 178.785 C 146.861 178.776,147.360 178.249,147.800 177.614 C 148.240 176.979,149.320 175.412,150.200 174.133 C 151.080 172.854,152.274 171.356,152.853 170.804 C 153.433 170.252,154.213 169.194,154.588 168.452 C 154.963 167.711,155.749 166.630,156.335 166.049 C 156.921 165.468,157.923 164.184,158.563 163.196 C 159.202 162.208,160.215 160.893,160.814 160.274 C 161.412 159.655,162.239 158.488,162.651 157.681 C 163.063 156.874,163.809 155.880,164.308 155.471 C 165.052 154.864,166.697 152.355,166.310 152.418 C 166.250 152.428,165.435 153.311,164.500 154.381 M144.764 180.913 C 143.974 181.841,142.871 183.320,142.312 184.200 C 141.753 185.080,140.824 186.236,140.248 186.770 C 139.672 187.303,139.200 187.904,139.200 188.104 C 139.200 188.641,141.638 186.019,142.842 184.186 C 143.416 183.314,144.451 181.996,145.142 181.258 C 145.834 180.519,146.400 179.754,146.400 179.558 C 146.400 179.020,146.317 179.089,144.764 180.913 M136.800 191.615 C 135.590 193.159,134.309 194.955,133.954 195.605 C 133.598 196.255,132.743 197.364,132.054 198.070 C 131.364 198.775,130.800 199.530,130.800 199.748 C 130.800 200.230,133.619 196.984,134.241 195.787 C 134.485 195.315,135.514 193.912,136.526 192.670 C 138.184 190.634,139.415 188.795,139.114 188.803 C 139.051 188.805,138.010 190.070,136.800 191.615 M129.200 202.099 C 128.430 203.026,127.007 204.868,126.038 206.192 C 125.068 207.516,124.156 208.690,124.010 208.800 C 123.722 209.017,121.044 212.495,118.800 215.568 C 118.030 216.622,116.813 218.276,116.095 219.242 C 115.377 220.209,114.477 221.438,114.095 221.973 C 113.713 222.507,112.628 223.855,111.684 224.968 C 110.740 226.080,109.872 227.442,109.756 227.995 C 109.639 228.548,109.221 229.647,108.826 230.437 C 107.413 233.264,106.754 233.209,143.000 233.313 C 173.013 233.399,173.420 233.411,175.000 234.239 L 176.600 235.078 176.702 284.969 C 176.781 324.171,176.910 334.962,177.302 335.335 C 179.227 337.168,180.418 336.994,181.876 334.666 C 182.450 333.750,183.032 332.910,183.170 332.800 C 183.385 332.629,185.592 329.829,186.483 328.600 C 186.642 328.380,187.295 327.570,187.933 326.800 C 188.572 326.030,189.674 324.454,190.383 323.298 C 191.092 322.141,191.984 320.971,192.367 320.698 C 192.749 320.424,193.728 319.210,194.543 318.000 C 198.847 311.608,199.624 310.518,200.529 309.600 C 201.071 309.050,201.959 307.877,202.503 306.994 C 203.046 306.111,203.804 305.129,204.186 304.811 C 204.568 304.494,205.518 303.237,206.296 302.017 C 207.074 300.798,208.217 299.279,208.837 298.643 C 209.456 298.007,210.249 296.883,210.599 296.145 C 210.949 295.407,211.813 294.218,212.518 293.502 C 213.223 292.786,214.149 291.575,214.575 290.811 C 215.001 290.048,215.739 289.058,216.214 288.611 C 216.689 288.165,217.540 287.080,218.104 286.200 C 218.669 285.320,219.554 284.150,220.072 283.600 C 220.590 283.050,221.592 281.690,222.299 280.577 C 223.006 279.464,224.038 278.128,224.592 277.607 C 225.147 277.087,225.600 276.476,225.600 276.250 C 225.600 275.641,222.722 278.811,221.820 280.414 C 221.008 281.856,220.630 282.377,219.565 283.519 C 219.216 283.894,218.350 285.058,217.642 286.106 C 216.933 287.155,216.028 288.325,215.630 288.706 C 215.233 289.088,214.405 290.210,213.791 291.200 C 213.177 292.190,212.274 293.360,211.785 293.800 C 211.297 294.240,210.420 295.369,209.837 296.310 C 208.873 297.866,207.739 299.337,206.553 300.572 C 206.307 300.828,205.988 301.408,205.844 301.860 C 205.701 302.313,205.041 303.205,204.378 303.842 C 203.715 304.479,202.835 305.630,202.422 306.400 C 202.009 307.170,201.144 308.340,200.501 309.000 C 199.857 309.660,198.671 311.190,197.864 312.400 C 194.877 316.879,192.745 319.819,191.635 320.993 C 191.007 321.657,190.247 322.671,189.947 323.247 C 189.646 323.823,188.907 324.903,188.305 325.647 C 187.702 326.391,186.360 328.080,185.322 329.400 C 184.284 330.720,183.329 331.890,183.200 332.000 C 183.071 332.110,182.433 333.055,181.783 334.099 C 180.487 336.179,179.906 336.371,178.400 335.214 L 177.400 334.446 177.200 284.923 C 177.071 252.935,176.858 235.180,176.600 234.779 C 175.352 232.840,174.657 232.800,142.233 232.800 C 109.191 232.800,108.453 232.756,109.446 230.851 C 109.748 230.273,109.996 229.389,109.998 228.886 C 110.000 228.041,110.827 226.416,111.795 225.356 C 113.952 222.993,114.768 222.008,115.135 221.322 C 115.496 220.647,116.644 219.143,118.803 216.517 C 119.021 216.251,119.200 215.880,119.200 215.693 C 119.200 215.506,120.012 214.373,121.004 213.176 C 121.996 211.979,123.402 210.280,124.129 209.400 C 124.856 208.520,126.007 206.990,126.687 206.000 C 127.368 205.010,128.271 203.835,128.694 203.390 C 129.527 202.513,130.984 200.395,130.746 200.407 C 130.666 200.411,129.970 201.173,129.200 202.099 M247.801 245.862 C 246.922 246.880,245.916 248.182,245.566 248.756 C 245.216 249.330,244.609 250.065,244.217 250.388 C 243.826 250.712,242.645 252.242,241.594 253.788 C 240.542 255.335,239.349 256.965,238.941 257.412 C 238.533 257.859,237.853 258.849,237.428 259.612 C 237.004 260.375,236.262 261.360,235.780 261.800 C 235.299 262.240,234.572 263.140,234.166 263.800 C 233.761 264.460,232.695 265.900,231.799 267.000 C 230.903 268.100,229.924 269.490,229.624 270.089 C 229.323 270.688,228.295 272.018,227.338 273.044 C 226.382 274.071,225.606 275.111,225.613 275.356 C 225.626 275.834,226.800 274.445,226.800 273.951 C 226.800 273.787,227.115 273.550,227.500 273.422 C 227.885 273.295,228.740 272.271,229.400 271.147 C 230.060 270.023,231.106 268.540,231.725 267.852 C 232.343 267.163,233.309 265.880,233.872 265.000 C 234.434 264.120,235.394 262.860,236.005 262.200 C 236.616 261.540,237.768 260.010,238.564 258.800 C 240.664 255.611,242.069 253.729,244.706 250.574 C 245.638 249.460,246.400 248.420,246.400 248.264 C 246.400 248.107,246.985 247.337,247.700 246.554 C 248.916 245.221,249.793 243.993,249.520 244.005 C 249.454 244.008,248.681 244.844,247.801 245.862 " stroke="none" fill="#6c9cfc" fill-rule="evenodd"></path><path id="path4" d="M217.762 83.500 C 216.705 85.205,215.692 86.662,215.510 86.737 C 215.328 86.812,214.835 87.548,214.414 88.372 C 213.994 89.196,213.036 90.484,212.286 91.235 C 211.536 91.986,210.635 93.140,210.284 93.800 C 209.933 94.460,209.088 95.630,208.406 96.400 C 207.725 97.170,206.531 98.835,205.754 100.100 C 204.978 101.365,204.205 102.400,204.037 102.400 C 203.870 102.400,202.939 103.570,201.969 105.000 C 201.000 106.430,200.087 107.600,199.941 107.600 C 199.795 107.600,199.216 108.384,198.654 109.343 C 198.093 110.302,196.816 112.090,195.816 113.316 C 194.817 114.543,194.000 115.653,194.000 115.784 C 194.000 115.914,193.418 116.661,192.706 117.443 C 191.995 118.225,190.780 119.830,190.006 121.009 C 188.573 123.195,184.020 129.171,182.719 130.575 C 182.323 131.002,182.000 131.474,182.000 131.625 C 182.000 131.776,181.279 132.687,180.397 133.649 C 179.515 134.612,178.683 135.747,178.548 136.171 C 178.412 136.595,177.648 137.645,176.851 138.504 C 176.053 139.363,175.130 140.538,174.800 141.116 C 174.083 142.372,173.886 142.644,172.569 144.200 C 172.011 144.860,171.081 146.210,170.502 147.200 C 169.924 148.190,168.852 149.595,168.122 150.323 C 167.391 151.050,166.440 152.338,166.008 153.185 C 165.576 154.032,164.812 155.059,164.311 155.469 C 163.810 155.878,163.063 156.874,162.651 157.681 C 162.239 158.488,161.412 159.655,160.814 160.274 C 160.215 160.893,159.202 162.208,158.563 163.196 C 157.923 164.184,156.921 165.468,156.335 166.049 C 155.749 166.630,154.963 167.711,154.588 168.452 C 154.213 169.194,153.428 170.250,152.844 170.800 C 152.260 171.350,151.365 172.477,150.855 173.305 C 150.072 174.577,148.947 176.068,146.797 178.683 C 146.579 178.949,146.400 179.335,146.400 179.541 C 146.400 179.747,145.834 180.519,145.142 181.258 C 144.451 181.996,143.418 183.320,142.848 184.200 C 142.277 185.080,141.427 186.160,140.959 186.600 C 140.490 187.040,139.479 188.390,138.712 189.600 C 137.945 190.810,136.571 192.697,135.659 193.793 C 134.746 194.889,134.000 195.986,134.000 196.231 C 134.000 196.476,133.614 197.019,133.142 197.438 C 132.669 197.857,131.646 199.188,130.868 200.395 C 130.090 201.603,129.109 202.953,128.689 203.395 C 128.268 203.838,127.368 205.010,126.687 206.000 C 126.007 206.990,124.856 208.520,124.129 209.400 C 123.402 210.280,121.996 211.979,121.004 213.176 C 120.012 214.373,119.200 215.506,119.200 215.693 C 119.200 215.880,119.021 216.251,118.803 216.517 C 116.644 219.143,115.496 220.647,115.135 221.322 C 114.768 222.008,113.952 222.993,111.795 225.356 C 110.827 226.416,110.000 228.041,109.998 228.886 C 109.996 229.389,109.748 230.273,109.446 230.851 C 108.453 232.756,109.191 232.800,142.233 232.800 C 174.657 232.800,175.352 232.840,176.600 234.779 C 176.858 235.180,177.071 252.935,177.200 284.923 L 177.400 334.446 178.400 335.214 C 179.906 336.371,180.487 336.179,181.783 334.099 C 182.433 333.055,183.071 332.110,183.200 332.000 C 183.329 331.890,184.284 330.720,185.322 329.400 C 186.360 328.080,187.702 326.391,188.305 325.647 C 188.907 324.903,189.646 323.823,189.947 323.247 C 190.247 322.671,191.007 321.657,191.635 320.993 C 192.745 319.819,194.877 316.879,197.864 312.400 C 198.671 311.190,199.857 309.660,200.501 309.000 C 201.144 308.340,202.009 307.170,202.422 306.400 C 202.835 305.630,203.715 304.479,204.378 303.842 C 205.041 303.205,205.701 302.313,205.844 301.860 C 205.988 301.408,206.307 300.828,206.553 300.572 C 207.739 299.337,208.873 297.866,209.837 296.310 C 210.420 295.369,211.297 294.240,211.785 293.800 C 212.274 293.360,213.177 292.190,213.791 291.200 C 214.405 290.210,215.233 289.088,215.630 288.706 C 216.028 288.325,216.933 287.155,217.642 286.106 C 218.350 285.058,219.216 283.894,219.565 283.519 C 220.630 282.377,221.008 281.856,221.820 280.414 C 222.249 279.652,223.275 278.311,224.100 277.434 C 224.925 276.556,225.600 275.630,225.600 275.375 C 225.600 275.120,226.382 274.071,227.338 273.044 C 228.295 272.018,229.323 270.688,229.624 270.089 C 229.924 269.490,230.903 268.100,231.799 267.000 C 232.695 265.900,233.761 264.460,234.166 263.800 C 234.572 263.140,235.299 262.240,235.780 261.800 C 236.262 261.360,237.004 260.375,237.428 259.612 C 237.853 258.849,238.533 257.859,238.940 257.412 C 239.347 256.965,240.411 255.520,241.304 254.200 C 242.198 252.880,243.620 251.039,244.464 250.109 C 245.309 249.179,246.004 248.279,246.009 248.109 C 246.014 247.939,246.824 246.918,247.809 245.839 C 248.794 244.760,249.600 243.699,249.600 243.480 C 249.600 243.261,250.203 242.344,250.941 241.441 C 253.431 238.393,257.600 232.740,257.600 232.412 C 257.600 232.233,258.410 231.186,259.400 230.084 C 260.390 228.983,261.200 227.924,261.200 227.730 C 261.200 227.535,261.805 226.752,262.545 225.988 C 263.284 225.225,264.495 223.610,265.235 222.400 C 265.975 221.190,266.998 219.778,267.509 219.263 C 268.020 218.748,268.923 217.578,269.516 216.663 C 270.110 215.748,271.180 214.370,271.894 213.600 C 272.609 212.830,273.195 212.017,273.197 211.793 C 273.198 211.569,274.010 210.460,275.000 209.329 C 275.990 208.197,276.800 207.153,276.800 207.009 C 276.800 206.713,278.623 204.216,279.727 203.000 C 280.126 202.560,280.843 201.570,281.320 200.800 C 281.797 200.030,282.693 198.870,283.312 198.221 C 283.931 197.573,284.699 196.493,285.020 195.821 C 285.340 195.150,286.105 194.060,286.719 193.400 C 290.320 189.534,291.167 186.753,289.355 184.750 C 288.702 184.029,287.491 184.000,257.964 184.000 C 226.068 184.000,226.035 183.998,224.245 182.209 L 223.200 181.164 223.200 132.442 C 223.200 81.197,223.218 81.701,221.361 80.855 C 219.844 80.164,219.817 80.183,217.762 83.500 M220.729 83.471 C 221.348 84.090,221.416 87.954,221.600 132.971 C 221.721 162.517,221.950 182.116,222.180 182.600 C 223.848 186.115,222.670 186.000,257.098 186.000 C 286.985 186.000,287.432 186.012,288.111 186.805 C 289.129 187.993,288.990 188.458,286.900 190.854 C 285.855 192.053,284.640 193.739,284.200 194.601 C 283.760 195.463,282.919 196.585,282.331 197.093 C 281.743 197.602,280.880 198.808,280.413 199.774 C 279.946 200.739,279.303 201.628,278.986 201.750 C 278.668 201.872,277.747 203.013,276.938 204.286 C 276.130 205.559,275.093 206.961,274.634 207.403 C 273.682 208.320,271.600 211.416,271.600 211.916 C 271.600 212.100,271.088 212.628,270.461 213.091 C 269.835 213.554,269.002 214.609,268.610 215.436 C 268.218 216.262,267.373 217.379,266.734 217.917 C 266.094 218.455,265.318 219.500,265.009 220.239 C 264.701 220.978,263.659 222.442,262.696 223.492 C 261.732 224.541,260.638 226.064,260.265 226.875 C 259.891 227.687,259.241 228.460,258.820 228.594 C 258.398 228.727,257.676 229.617,257.215 230.569 C 256.754 231.522,255.752 232.945,254.988 233.731 C 254.225 234.517,253.600 235.349,253.600 235.580 C 253.600 235.811,253.432 236.000,253.227 236.000 C 253.022 236.000,252.753 236.315,252.629 236.700 C 252.506 237.085,251.680 238.210,250.794 239.200 C 249.908 240.190,248.881 241.678,248.512 242.506 C 248.143 243.335,247.439 244.275,246.949 244.597 C 246.458 244.918,245.549 246.087,244.928 247.194 C 244.308 248.301,243.528 249.294,243.195 249.400 C 242.863 249.506,241.974 250.625,241.219 251.887 C 240.465 253.148,239.355 254.595,238.752 255.101 C 238.150 255.608,237.358 256.806,236.993 257.763 C 236.628 258.719,235.819 259.879,235.195 260.340 C 234.572 260.801,233.569 262.083,232.967 263.189 C 232.365 264.295,231.709 265.200,231.508 265.200 C 230.932 265.200,230.243 266.055,229.250 268.000 C 228.745 268.990,227.732 270.430,227.000 271.200 C 226.268 271.970,225.282 273.352,224.809 274.270 C 224.337 275.189,223.510 276.229,222.972 276.582 C 222.434 276.934,221.612 278.033,221.147 279.024 C 220.681 280.015,219.983 280.995,219.596 281.202 C 219.208 281.410,218.515 282.217,218.055 282.996 C 217.064 284.677,216.920 284.866,214.855 287.213 C 213.977 288.210,213.136 289.517,212.985 290.117 C 212.834 290.718,212.171 291.594,211.510 292.064 C 210.850 292.534,210.066 293.502,209.768 294.214 C 209.470 294.927,208.455 296.295,207.511 297.255 C 206.568 298.215,205.437 299.690,204.998 300.534 C 204.559 301.378,203.435 302.882,202.500 303.876 C 201.565 304.870,200.800 306.004,200.800 306.394 C 200.800 306.785,200.168 307.587,199.395 308.176 C 198.623 308.766,197.749 309.827,197.453 310.536 C 197.156 311.244,196.349 312.390,195.657 313.081 C 194.966 313.773,194.400 314.504,194.400 314.707 C 194.400 314.910,193.950 315.599,193.400 316.238 C 192.851 316.877,192.401 317.556,192.400 317.747 C 192.400 317.938,191.698 318.775,190.841 319.607 C 189.983 320.439,189.164 321.653,189.021 322.303 C 188.878 322.953,188.361 323.700,187.870 323.962 C 187.380 324.225,186.454 325.285,185.812 326.320 C 185.169 327.354,184.154 328.682,183.556 329.271 C 182.957 329.860,181.985 331.165,181.396 332.171 C 180.127 334.336,180.184 334.317,179.410 332.820 C 178.873 331.781,178.800 325.877,178.800 283.580 C 178.800 231.426,178.886 233.509,176.682 232.520 C 172.669 230.721,173.268 230.750,142.125 230.826 C 117.531 230.886,112.639 230.807,112.397 230.349 C 111.407 228.471,111.572 227.650,113.296 225.868 C 115.297 223.800,116.400 222.381,116.400 221.875 C 116.400 221.675,117.210 220.713,118.200 219.737 C 119.190 218.761,120.000 217.620,120.000 217.200 C 120.000 216.780,120.810 215.639,121.800 214.663 C 122.790 213.687,123.600 212.617,123.600 212.286 C 123.600 211.954,124.190 211.164,124.912 210.531 C 125.634 209.897,126.644 208.699,127.157 207.869 C 127.670 207.039,128.876 205.440,129.835 204.315 C 130.795 203.190,131.779 201.670,132.021 200.935 C 132.264 200.201,132.601 199.600,132.770 199.600 C 133.418 199.600,134.738 198.122,135.308 196.758 C 135.635 195.975,136.356 194.978,136.910 194.542 C 137.463 194.107,138.674 192.513,139.600 191.000 C 140.526 189.487,141.694 187.927,142.195 187.532 C 142.697 187.138,143.381 186.131,143.715 185.296 C 144.049 184.460,144.771 183.537,145.319 183.244 C 145.866 182.950,146.798 181.754,147.390 180.586 C 147.981 179.417,148.708 178.367,149.005 178.253 C 149.303 178.139,150.212 177.000,151.025 175.723 C 151.839 174.445,153.107 172.729,153.843 171.909 C 154.579 171.089,155.431 169.821,155.736 169.091 C 156.041 168.361,156.763 167.454,157.340 167.076 C 157.917 166.698,158.735 165.716,159.157 164.894 C 159.579 164.072,160.661 162.605,161.562 161.633 C 162.463 160.662,163.200 159.627,163.200 159.333 C 163.200 159.040,163.380 158.800,163.600 158.800 C 163.820 158.800,164.000 158.566,164.000 158.281 C 164.000 157.995,164.681 157.050,165.513 156.181 C 166.346 155.311,167.270 154.008,167.568 153.285 C 167.866 152.561,168.455 151.785,168.876 151.559 C 169.298 151.334,170.296 150.126,171.096 148.875 C 171.895 147.624,172.740 146.399,172.974 146.153 C 174.273 144.790,175.079 143.628,175.723 142.185 C 176.120 141.297,176.840 140.397,177.322 140.185 C 177.805 139.973,178.628 138.874,179.150 137.741 C 179.673 136.609,180.499 135.501,180.987 135.279 C 181.474 135.057,182.165 134.261,182.521 133.510 C 182.877 132.759,183.833 131.441,184.645 130.579 C 185.458 129.718,186.627 128.201,187.244 127.207 C 187.861 126.213,188.901 124.902,189.554 124.293 C 190.208 123.685,190.939 122.591,191.179 121.862 C 191.420 121.134,192.137 120.153,192.773 119.683 C 193.409 119.213,194.336 118.014,194.833 117.019 C 195.330 116.024,196.057 115.109,196.448 114.985 C 196.839 114.861,197.260 114.440,197.384 114.050 C 197.508 113.660,197.929 112.994,198.319 112.571 C 198.710 112.147,199.266 111.224,199.555 110.519 C 199.844 109.815,200.510 108.958,201.035 108.614 C 201.560 108.270,202.334 107.316,202.756 106.494 C 203.177 105.672,204.260 104.227,205.161 103.283 C 206.062 102.339,206.800 101.326,206.800 101.031 C 206.800 100.737,207.475 99.768,208.300 98.877 C 210.396 96.614,210.666 96.252,210.970 95.295 C 211.117 94.831,212.017 93.660,212.970 92.694 C 213.923 91.727,214.838 90.501,215.004 89.968 C 215.170 89.436,215.867 88.440,216.553 87.755 C 217.239 87.070,218.230 85.675,218.756 84.655 C 219.839 82.551,219.820 82.563,220.729 83.471 " stroke="none" fill="#6494fc" fill-rule="evenodd"></path></g></svg>